<svg width="589" height="207" xmlns="http://www.w3.org/2000/svg" xmlns:xlink="http://www.w3.org/1999/xlink" overflow="hidden"><defs><clipPath id="clip0"><path d="M334 110 923 110 923 317 334 317Z" fill-rule="evenodd" clip-rule="evenodd"/></clipPath></defs><g clip-path="url(#clip0)" transform="translate(-334 -110)"><rect x="335.5" y="113.5" width="320" height="39" stroke="#000000" stroke-linejoin="round" stroke-miterlimit="10" fill="none"/><text font-family="KaiTi,KaiTi_MSFontService,sans-serif" font-weight="400" font-size="24" transform="translate(447.101 143)">DOS MZ<tspan x="72" y="0">头</tspan></text><rect x="335.5" y="152.5" width="320" height="39" stroke="#000000" stroke-linejoin="round" stroke-miterlimit="10" fill="none"/><text font-family="KaiTi,KaiTi_MSFontService,sans-serif" font-weight="400" font-size="24" transform="translate(447.101 182)">DOS Stub</text><rect x="335.5" y="191.5" width="320" height="39" stroke="#000000" stroke-linejoin="round" stroke-miterlimit="10" fill="none"/><text font-family="KaiTi,KaiTi_MSFontService,sans-serif" font-weight="400" font-size="24" transform="translate(471.101 221)">PE头</text><rect x="335.5" y="230.5" width="320" height="38" stroke="#000000" stroke-linejoin="round" stroke-miterlimit="10" fill="none"/><text font-family="KaiTi,KaiTi_MSFontService,sans-serif" font-weight="400" font-size="24" transform="translate(459.101 259)">区块表</text><rect x="335.5" y="268.5" width="320" height="39" stroke="#000000" stroke-linejoin="round" stroke-miterlimit="10" fill="none"/><text font-family="KaiTi,KaiTi_MSFontService,sans-serif" font-weight="400" font-size="24" transform="translate(447.101 298)">区块数据</text><path d="M778.5 147.5C782.918 147.5 786.5 149.41 786.5 151.767L786.5 175.799C786.5 178.155 790.082 180.065 794.5 180.065 790.082 180.065 786.5 181.976 786.5 184.332L786.5 213.234C786.5 215.59 782.918 217.5 778.5 217.5" stroke="#000000" stroke-miterlimit="8" fill="none" fill-rule="evenodd"/><path d="M659.5 233.5C663.918 233.5 667.5 235.41 667.5 237.767L667.5 261.799C667.5 264.155 671.082 266.065 675.5 266.065 671.082 266.065 667.5 267.976 667.5 270.332L667.5 299.234C667.5 301.59 663.918 303.5 659.5 303.5" stroke="#000000" stroke-miterlimit="8" fill="none" fill-rule="evenodd"/><path d="M660.5 191.5C664.366 191.5 667.5 193.171 667.5 195.233L667.5 205.91C667.5 207.972 670.634 209.644 674.5 209.644 670.634 209.644 667.5 211.315 667.5 213.377L667.5 226.767C667.5 228.829 664.366 230.5 660.5 230.5" stroke="#000000" stroke-miterlimit="8" fill="none" fill-rule="evenodd"/><text font-family="KaiTi,KaiTi_MSFontService,sans-serif" font-weight="400" font-size="24" transform="translate(697.78 162)">DOS<tspan x="36.0001" y="0">头</tspan><tspan x="-6.10352e-05" y="56">PE</tspan>头<tspan x="-0.000183105" y="115">PE</tspan>数据区<tspan x="108.943" y="27">PE</tspan>文件夹</text><path d="M660.5 117.5C664.918 117.5 668.5 119.41 668.5 121.767L668.5 145.799C668.5 148.155 672.082 150.065 676.5 150.065 672.082 150.065 668.5 151.976 668.5 154.332L668.5 183.234C668.5 185.59 664.918 187.5 660.5 187.5" stroke="#000000" stroke-miterlimit="8" fill="none" fill-rule="evenodd"/></g></svg>